<svg xmlns="http://www.w3.org/2000/svg" width="780" height="796" fill="none"><path fill="#F6E5DB" d="M457.415 165.677c-18.298-8.128-38.046-14.061-58.182-14.485-17.827-.346-35.498 4.725-48.792 16.98-16.019 14.791-22.563 37.189-24.791 58.246-1.567 14.984-1.504 30.109-2.556 45.137-1.141 16.059-2.962 32.181-7.141 47.788-3.998 14.912-10.455 29.472-21.015 40.89-10.28 11.183-24.239 18.306-39 21.308-12.107 2.486-24.615 2.6-36.481 6.112-10.45 3.114-19.736 9.17-27.303 16.95a45.325 45.325 0 0 0-7.45 7.028c-8.217 9.906-12.367 22.761-14.213 35.365-4.013 27.536 1.217 55.923 13.229 80.826 28.34 58.718 86.207 97.942 148.918 111.416 55.908 11.985 116.663 4.82 166.668-23.641 25.157-14.313 47.177-34.352 63.373-58.427 15.844-23.604 27.7-50.271 35.953-77.458 15.51-51.031 15.792-106.096-.836-156.892-15.486-47.388-44.657-91.041-83.596-122.221-17.337-13.864-36.474-25.892-56.785-34.922Z"/><path fill="#fff" d="M376.914 255.271c9.382-4.26 18.679-8.736 27.812-13.521 9.313-4.855 18.447-10.054 27.681-15.003 8.854-4.757 17.765-9.37 26.932-13.545 8.917-4.076 18.01-7.393 27.225-10.717 6.341-2.308 12.813-5.124 18.893-8.614a275.107 275.107 0 0 0-3.486-2.516c-4.394 2.407-8.931 4.455-13.374 6.218-4.264 1.691-8.656 3.06-12.984 4.694-4.629 1.712-9.223 3.617-13.753 5.58-8.901 3.904-17.547 8.246-26.157 12.781-9.154 4.835-18.196 9.956-27.322 14.862-9.055 4.877-18.309 9.461-27.663 13.793-18.693 8.701-37.742 16.506-56.926 24.075l-1.111.44c-.09 1.446-.23 2.871-.356 4.331 18.382-7.292 36.634-14.698 54.589-22.858ZM351.891 325.918c7.595-2.805 15.338-4.301 23.336-5.358 7.54-.959 15.208-1.595 22.615-3.413 6.733-1.634 13.018-4.293 18.692-8.286 5.006-3.479 9.343-7.812 13.771-12.016 4.429-4.204 9.086-8.249 14.585-11.011 6.53-3.296 13.502-5.896 20.218-8.725 7.037-2.958 14.068-5.83 21.148-8.68 3.333-1.322 6.644-2.801 10.161-3.657 3.288-.807 6.696-1.205 10.082-1.345 6.479-.289 12.97.288 19.476.279 6.543-.024 12.88-.879 19.071-3.044 5.352-1.875 10.364-4.609 14.926-7.953.645-.464 1.241-.949 1.851-1.398a141.255 141.255 0 0 0-2.303-3.193c-1.578 1.248-3.171 2.461-4.82 3.53a52.348 52.348 0 0 1-15.747 6.827c-6.239 1.521-12.673 1.502-19.036 1.247-6.384-.205-12.861-.539-19.199.316-6.881.946-13.174 3.691-19.538 6.257a1113.682 1113.682 0 0 0-21.012 8.709c-6.429 2.716-13.229 5.123-19.259 8.635-10.425 6.126-17.62 16.114-27.625 22.778-12.321 8.247-27.204 8.676-41.389 10.654-7.62 1.073-14.997 2.755-22.17 5.476-7.904 2.969-15.524 6.656-23.186 10.234-6.236 2.889-12.436 5.555-18.799 7.913a106.846 106.846 0 0 1-2.785 5.211c.96-.297 1.906-.631 2.852-.965 15.154-5.182 29.086-13.446 44.084-19.022ZM578.591 364.812c-5.985 5.195-10.807 11.545-16.392 17.12-6.418 6.403-13.876 11.228-22.197 14.819-18.025 7.773-37.802 10.185-56.938 13.586-9.346 1.634-18.678 3.511-27.798 6.133-4.685 1.361-9.371 2.93-13.879 4.842-3.698 1.55-7.49 3.178-10.511 5.912-5.39 4.917-8.104 12.505-15.733 14.494-7.507 1.983-15.291-1.856-22.249-4.239-8.001-2.715-15.416-3.217-23.619-.792-8.876 2.608-16.55 7.934-24.31 12.837-4.209 2.665-8.547 5.215-13.163 7.17-4.902 2.069-10.074 3.458-15.061 5.311-9.595 3.516-18.948 7.641-28.052 12.29-18.237 9.225-35.456 20.285-52.817 30.988-16.191 9.99-31.521 21.421-46.987 32.616a988.378 988.378 0 0 0 1.959 3.37c11.039-8.029 22.001-16.151 33.175-23.736 17.163-11.619 35.025-22.52 53.1-32.677 8.546-4.8 17.292-9.306 26.251-13.275a263.142 263.142 0 0 1 14.434-5.85c4.987-1.854 10.195-3.256 15.111-5.289 16.505-6.796 31.946-24.534 51.306-21.306 7.541 1.239 14.401 5.154 21.913 6.529 7.118 1.324 14.152-.388 19.2-5.75 2.362-2.513 4.175-5.472 6.437-8.028 2.837-3.199 6.486-4.978 10.349-6.635 8.951-3.883 18.393-6.425 27.876-8.445 18.93-4.025 38.327-6.038 56.989-11.367 8.833-2.508 17.497-5.862 25.385-10.65 7.142-4.368 12.942-10.236 18.544-16.398 5.436-6.055 10.966-12.188 18.164-16.205 5.399-3.013 11.287-4.685 17.346-5.72-.226-1.196-.429-2.442-.705-3.66-9.89 1.725-19.141 5.063-27.128 12.005ZM552.332 493.309c-6.993 7.253-10.63 17.115-19.493 22.58-10.455 6.47-23.427 7.012-34.188 12.815-5.987 3.205-10.796 7.808-15.705 12.369-5.929 5.545-12.485 10.344-19.498 14.411-12.784 7.394-26.778 12.365-40.174 18.425-7.347 3.329-14.465 7.024-21.335 11.242-7.45 4.532-15.3 8.475-23.255 12.046-15.998 7.133-32.628 12.776-48.995 18.978-10.412 3.965-20.91 7.922-30.953 12.818 1.759.671 3.504 1.306 5.285 1.927 4.401-2.078 8.873-3.976 13.423-5.781 16.196-6.425 32.64-12.118 48.814-18.493 8.17-3.241 16.29-6.71 24.139-10.654 7.578-3.793 14.678-8.476 22.148-12.435 13.478-7.213 27.909-12.232 41.692-18.778 6.659-3.181 13.162-6.756 19.237-10.991 6.757-4.712 12.364-10.545 18.686-15.831 4.327-3.625 9.038-6.489 14.376-8.399 5.639-1.988 11.42-3.41 17.088-5.327 6.133-2.101 12.089-4.754 16.805-9.279 3.546-3.397 6.149-7.499 8.888-11.572 3.135-4.644 6.719-8.886 11.36-12.137 5.544-3.9 12.164-5.821 18.788-6.79 5.979-.92 12.021-1.16 18.071-1.486.375-1.144.701-2.31 1.076-3.455.065-.15.08-.322.145-.472-3.723.233-7.438.379-11.111.634-13.109.928-25.887 3.84-35.314 13.635ZM565.569 308.968c-5.612 5.088-11.719 8.091-19.132 9.58-10.034 1.99-20.337 2.675-30.532 3.526-10.475.879-21.057 2.008-31.088 5.364-9.924 3.315-18.523 8.924-26.159 16.018-7.128 6.601-13.505 13.942-21.218 19.905-8.228 6.333-17.652 10.071-27.892 11.437-19.076 2.508-38.632-2.053-57.486 2.689-10.859 2.731-20.297 8.632-29.997 13.973-4.796 2.649-9.7 5.133-14.909 6.951-5.173 1.803-9.726 2.033-15.158 1.824-4.345-.185-8.968-.342-13.046 1.4-3.627 1.522-6.699 4.441-9.063 7.577-5.159 6.858-7.474 15.242-14.805 20.389-16.748 11.828-41.109 7.805-55.565 23.742-2.413 2.699-4.24 5.83-6.36 8.745-2.947 4.072-6.572 7.376-11.088 9.582-4.171 2.028-8.613 3.375-12.913 5.081.125 1.361.25 2.721.41 4.068.774-.349 1.563-.661 2.387-.988 4.973-1.89 10.11-3.472 14.692-6.243 3.8-2.337 7.002-5.557 9.633-9.172 2.027-2.836 3.761-5.888 6.13-8.487 3.39-3.792 7.857-6.435 12.523-8.368 9.732-4.11 20.308-5.36 30.261-8.811 9.042-3.13 16.565-8.105 21.457-16.475 4.079-6.968 7.779-16.357 16.788-17.899 4.669-.774 9.434-.051 14.144-.094 4.868-.065 9.46-1.555 13.961-3.382 10.434-4.222 19.701-10.759 29.901-15.469 9.533-4.404 19.502-6.035 29.939-6.277 9.671-.186 19.346.579 29.01.271 9.457-.309 18.995-1.77 27.661-5.746 9.009-4.155 16.402-10.82 23.365-17.73 6.964-6.91 13.799-14.142 22.296-19.172 9.465-5.62 20.195-8.259 31.022-9.61 10.705-1.343 21.486-1.762 32.213-3.155 7.733-.994 15.868-2.023 22.758-5.876 7.162-4.003 13.359-10.442 18.552-16.691 2.608-3.15 4.75-6.53 7.05-9.723-.676-1.391-1.366-2.818-2.042-4.209-2.465 3.301-4.458 6.953-7.023 10.21-3.061 3.993-6.83 7.77-10.677 11.245ZM565.049 437.748c-6.372 3.067-12.863 4.895-19.93 5.583-8.355.784-16.822.244-25.079 1.695-7.169 1.267-14.686 4.166-19.149 10.167-4.455 5.915-6.581 13.519-13.164 17.623-8.025 4.967-18.318 4.944-27.003 8.348-9.259 3.631-17.92 8.56-26.517 13.546-8.267 4.772-16.578 9.853-25.642 13.033-9.064 3.181-18.61 4.728-27.738 7.644-9.128 2.916-17.109 7.782-25.041 13.085-8.133 5.425-16.024 11.251-24.036 16.876-16.196 11.443-33.257 22.483-52.712 27.38-17.314 4.338-35.29 7.529-52.697 12.153 1.157 1.034 2.327 2.104 3.484 3.138 13.825-3.617 27.87-6.368 41.78-9.564 8.825-2.007 17.435-4.344 25.728-8.007 8.794-3.862 17.09-8.77 25.087-14.016 8.326-5.46 16.382-11.393 24.509-17.146 7.961-5.647 16.039-11.63 24.727-16.072 8.76-4.47 18.408-6.389 27.842-8.846 9.255-2.386 17.733-5.79 26.107-10.398 8.61-4.742 16.914-9.944 25.689-14.379 4.43-2.214 8.938-4.334 13.61-5.938 4.672-1.604 9.613-2.32 14.391-3.552 4.176-1.076 8.332-2.517 11.889-5.048 2.934-2.118 5.226-5.018 7.082-8.077 1.891-3.072 3.44-6.383 5.56-9.297 2.314-3.158 5.52-5.218 9.125-6.689 7.718-3.228 16.307-3.11 24.533-3.386 7.688-.271 15.342-.943 22.629-3.585 13.128-4.751 25.035-13.415 35.698-22.29a213.963 213.963 0 0 0 14.354-12.952c.041-1.883.096-3.729.102-5.598a228.386 228.386 0 0 1-9.317 8.922c-10.788 9.92-22.669 19.278-35.901 25.647ZM551.468 553.458c-5.588 4.208-10.806 8.932-16.223 13.362-6.63 5.45-13.595 10.37-21.13 14.479-15.414 8.395-32.165 13.837-47.914 21.495-7.892 3.835-15.542 8.28-22.48 13.687-2.21 1.747-4.498 3.401-6.8 5.02-11.777 8.156-24.125 15.501-36.629 22.451a253.45 253.45 0 0 0 9.164-.732c8.268-4.772 16.449-9.76 24.41-14.991 6.878-4.512 13.199-9.798 20.105-14.238 14.816-9.486 31.59-15.186 47.566-22.269 8.149-3.606 16.163-7.657 23.643-12.532 6.713-4.404 12.87-9.584 18.991-14.749 7.261-6.157 14.811-12.636 23.724-15.674a350.098 350.098 0 0 0 2.927-4.853 26.508 26.508 0 0 0-2.987.729c-6.032 1.729-11.424 5.071-16.367 8.815ZM356.565 210.961c10.173-2.999 20.496-5.725 30.144-10.257 4.616-2.163 9.026-4.742 13.115-7.815 3.888-2.953 7.441-6.228 11.2-9.296 3.724-3.053 7.605-5.92 11.985-7.947 4.487-2.071 9.264-3.095 14.168-3.589 9.265-.896 18.712-.289 27.724-2.868-1.944-.929-3.888-1.859-5.868-2.774-6.181 1.042-12.501 1.102-18.851 1.506-4.647.308-9.28.861-13.757 2.222-4.55 1.39-8.815 3.704-12.703 6.449-7.811 5.504-14.296 12.68-22.635 17.481-9.12 5.235-19.15 8.385-29.18 11.327-9.922 2.899-19.915 5.618-29.284 10.123a70.222 70.222 0 0 0-6.187 3.325 94.962 94.962 0 0 0-.666 4.909c.861-.548 1.771-1.075 2.646-1.588 8.719-5.201 18.456-8.358 28.149-11.208Z"/></svg>