<svg xmlns="http://www.w3.org/2000/svg" width="268" height="131" fill="none"><path fill="#CED6D2" d="M265.499 79.642c-3.578-3.729-9.725-4.535-14.588-5.064-7.281-.806-14.688-.58-21.969-.076-7.558.504-15.117 1.411-22.6 2.57-3.98.605-7.986 1.26-11.917 2.167 2.898-4.056 5.292-8.44 7.433-12.925 3.377-7.08 6.098-14.461 8.315-21.97 2.041-6.903 3.629-13.982 4.486-21.138.555-4.786 1.084-10.279-.503-14.965-1.612-4.787-6.626-6.626-11.388-6.425-6.676.278-13 3.73-18.417 7.382-5.594 3.754-10.759 8.189-15.47 13-4.51 4.611-8.088 9.953-11.565 15.37-4.938 7.709-9.474 15.67-13.707 23.758-2.293 4.358-4.586 8.767-6.601 13.252-.958-5.517-2.57-10.934-4.535-16.15-3.149-8.44-7.204-16.552-11.941-24.211-4.56-7.357-9.774-14.386-15.871-20.534C99.799 8.77 94.206 4.16 87.681 1.741 82.54-.174 76.67-.174 72.034 3.05c-4.258 2.973-5.468 7.558-5.796 12.522-.403 6.475.604 13.076 1.788 19.425 1.386 7.457 3.3 14.814 5.39 22.095a412.235 412.235 0 0 0 5.996 18.921c.53 1.562 1.033 3.15 1.562 4.737-3.401-2.117-7.155-3.73-10.833-5.14-7.256-2.746-14.89-4.585-22.549-5.744-7.558-1.16-15.293-1.739-22.927-1.084-5.795.504-12.194 1.613-16.956 5.216-5.92 4.484-8.617 13.353-6.3 20.357 2.948 8.893 11.69 14.738 19.752 18.568 8.113 3.855 16.83 6.45 25.522 8.591 9.7 2.394 19.55 4.183 29.452 5.543 19.273 2.671 38.95 4.082 58.4 2.998 1.99-.101 3.955-.252 5.946-.428a.912.912 0 0 0 .277-.05c8.667.125 17.334-.177 25.875-.58 13.957-.655 28.016-1.109 41.747-3.83 10.96-2.166 21.541-6.273 31.745-10.783 8.541-3.779 17.309-8.616 22.827-16.427 2.595-3.678 4.384-8.213 4.611-12.723.177-2.09-.629-4.056-2.065-5.593Z"/><path fill="#F7F7F7" d="M28.345 74.629v-6.072c-1.108.05-2.217.1-3.3.201v2.318c-.001 12.22.427 24.439.577 36.658l.076 7.206c1.108.453 2.217.882 3.325 1.31l-.075-6.047c-.176-14.058-.553-25.9-.603-35.575ZM59.536 72.26a159.382 159.382 0 0 0-3.326-.806c.176 9.196.402 20.559.629 34.113.1 6.122.276 12.245.578 18.342 1.109.226 2.217.428 3.326.655-.227-4.888-.403-9.75-.503-14.638-.277-12.547-.453-25.094-.704-37.666ZM92.768 59.638c-1.133-12.85-2.72-27.84-3.651-40.69-.479-6.348-.806-10.581-.83-16.98-.202-.076-.404-.152-.58-.227a21.007 21.007 0 0 0-2.721-.806c-.077 18.14 2.366 36.355 4.104 54.319 1.284 13.277 1.762 26.555 2.114 39.883.177 7.079.378 14.159.68 21.213.176 4.233.352 8.415.427 12.648 1.084.101 2.192.202 3.276.302-.151-9.926-.705-19.853-.956-29.805-.403-13.328-.68-26.605-1.863-39.857ZM126.88 70.446c.177-7.986.329-15.973.43-23.96a179.358 179.358 0 0 0-3.225-6.198c-.05 6.198-.202 14.563-.404 25.12a7073.042 7073.042 0 0 1-.934 40.033c-.202 8.34-.429 16.654-.656 24.993 1.108 0 2.217-.025 3.3-.025l.53-19.904c.353-13.353.682-26.706.959-40.059ZM164.118 65.407c-.151-12.22-.503-24.438-.729-36.683a112.672 112.672 0 0 0-3.2 4.535c.151 6.878.402 15.948.578 27.21.201 12.925.1 25.85-.203 38.774-.253 10.028-.53 20.03-.506 30.057 1.084-.05 2.167-.075 3.251-.126.025-8.692.252-17.359.479-26 .253-12.597.48-25.17.33-37.767ZM199.263 78.231c-1.108.202-2.217.428-3.325.655-.984 16.124-1.816 32.274-2.195 48.424 1.109-.126 2.217-.227 3.326-.378.101-4.384.227-8.793.379-13.177.378-11.841 1.059-23.683 1.815-35.524ZM198.207 40.868c-.328 7.634-.807 15.243-1.286 22.852l-.832 13.05c1.336-2.04 2.545-4.182 3.704-6.324l.151-2.09c.505-7.534.984-15.042 1.387-22.575.378-7.357.505-14.739.732-22.095.227-7.03 1.235-14.034 1.638-21.063.026-.277.026-.53.051-.806h-.907c-.806.025-1.613.126-2.419.226-.328 5.997-1.059 11.968-1.462 17.964-.529 6.954-.454 13.933-.757 20.861ZM234.485 74.2c-1.109.05-2.217.101-3.301.177.403 14.588.201 29.201-.002 43.814 1.084-.428 2.167-.857 3.225-1.31.102-14.235.506-28.47.078-42.68Z"/></svg>