<svg width="52" height="52" viewBox="0 0 52 52" fill="none" xmlns="http://www.w3.org/2000/svg">
<g clip-path="url(#clip0_1_2931)">
<mask id="mask0_1_2931" style="mask-type:luminance" maskUnits="userSpaceOnUse" x="0" y="0" width="52" height="52">
<path d="M0 -5.72205e-05H52V51.9999H0V-5.72205e-05Z" fill="white"/>
</mask>
<g mask="url(#mask0_1_2931)">
<path fill-rule="evenodd" clip-rule="evenodd" d="M4.06875 50.4521C3.70891 48.5491 2.8827 43.4101 2.59193 37.7242C2.30968 32.1535 2.55445 26.0559 4.32499 21.9389C4.48911 21.556 4.64735 21.1703 4.79715 20.7816C4.79989 20.7729 4.80294 20.7644 4.80568 20.7556C5.03044 20.2404 4.84042 19.8776 4.45458 19.535C3.32033 18.5303 2.61498 16.8288 2.61498 14.9316C2.61498 12.804 3.52468 10.95 4.8719 9.98552C5.21447 9.73792 5.25195 9.45578 4.9239 9.12753C3.96221 8.26099 3.35182 6.95399 3.35182 5.49149C3.35182 2.88031 5.30953 0.761417 7.72794 0.761417H34.5913C35.0952 0.761417 35.36 0.942707 35.3543 1.53014C35.3255 3.56251 35.3225 9.32049 36.7045 15.4067C37.1996 17.5946 37.8733 19.8258 38.783 21.9389C40.8533 26.7554 40.8387 34.2838 40.3291 40.5024C39.9578 45.0368 39.3447 48.8801 39.0366 50.4606C38.9185 51.071 38.5845 51.238 38.1036 51.238H25.0852C24.5611 51.238 24.2388 50.9645 24.135 50.4665L21.5555 38.179L18.9731 50.4665C18.8666 50.9703 18.4838 51.238 18.023 51.238H5.00444C4.5208 51.238 4.1955 51.1143 4.06875 50.4521Z" fill="#FFD3A3"/>
<path fill-rule="evenodd" clip-rule="evenodd" d="M32.887 0.761539H34.5913C35.0952 0.761539 35.36 0.942829 35.3542 1.53016C35.3255 3.56263 35.3225 9.32051 36.7045 15.4067C37.1996 17.5947 37.8733 19.8259 38.783 21.939C40.8532 26.7554 40.8387 34.2839 40.3291 40.5025C39.9578 45.0368 39.3446 48.8802 39.0366 50.4607C38.9185 51.071 38.5844 51.2381 38.1035 51.2381H25.0852C24.561 51.2381 24.2387 50.9646 24.1349 50.4665L23.7809 48.7737H35.6393C36.1201 48.7737 36.454 48.6068 36.572 47.9964C36.8773 46.4159 37.4933 42.5726 37.8648 38.038C38.3743 31.8196 38.3886 24.2882 36.3187 19.4747C35.409 17.3587 34.7353 15.1304 34.2373 12.9423C33.1403 8.10572 32.9187 3.4763 32.887 0.761539ZM4.06873 50.4522C3.99093 50.0376 3.89018 49.4675 3.77795 48.7737H19.3272L18.9731 50.4665C18.8666 50.9703 18.4838 51.2381 18.0229 51.2381H5.00442C4.52078 51.2381 4.19548 51.1143 4.06873 50.4522Z" fill="#FFBE84"/>
<path fill-rule="evenodd" clip-rule="evenodd" d="M21.5554 38.1791C23.5678 34.14 29.5418 29.6891 36.9348 27.1068C37.9655 26.747 38.9902 26.4331 40.001 26.1654C39.716 24.6193 39.3186 23.1885 38.7829 21.9391C38.6822 21.7087 38.5873 21.4785 38.4951 21.2453C35.0001 23.9659 28.7211 25.7796 21.5554 25.7796C14.3869 25.7796 8.10781 23.9659 4.61579 21.2453C4.52072 21.4785 4.42576 21.7087 4.32501 21.9391C3.78937 23.1885 3.39206 24.6193 3.10718 26.1654C4.11772 26.4331 5.14259 26.747 6.17315 27.1068C13.5665 29.6891 19.5402 34.14 21.5554 38.1791Z" fill="#FBF8F9"/>
<path fill-rule="evenodd" clip-rule="evenodd" d="M19.3501 8.11688H27.6933V11.0764H19.3501C18.5355 11.0764 17.8704 10.4084 17.8704 9.59665C17.8704 8.78192 18.5355 8.11688 19.3501 8.11688Z" fill="#8CD6FF"/>
<path fill-rule="evenodd" clip-rule="evenodd" d="M38.3656 7.56431H42.6898C43.3435 7.56431 43.8761 8.09975 43.8761 8.7533V10.4404C43.8761 11.0938 43.3435 11.6264 42.6898 11.6264H38.3656V7.56431Z" fill="#FF9BA1"/>
<path fill-rule="evenodd" clip-rule="evenodd" d="M29.6655 6.08754H37.3809C38.1928 6.08754 38.8579 6.75257 38.8579 7.56446V11.6266C38.8579 12.4414 38.1928 13.1063 37.3809 13.1063H29.6655V6.08754Z" fill="#E3DCEF"/>
<path fill-rule="evenodd" clip-rule="evenodd" d="M36.3934 6.08754H37.3809C38.1928 6.08754 38.8579 6.75257 38.8579 7.56446V11.6266C38.8579 12.4414 38.1928 13.1063 37.3809 13.1063H29.6655V10.6421H34.9166C35.7285 10.6421 36.3934 9.97698 36.3934 9.16225V6.08754Z" fill="#D6CFE7"/>
<path fill-rule="evenodd" clip-rule="evenodd" d="M28.6808 4.60773C29.4927 4.60773 30.1576 5.27276 30.1576 6.08749V13.1064C30.1576 13.9184 29.4927 14.5862 28.6808 14.5862C27.8662 14.5862 27.201 13.9184 27.201 13.1064V6.08749C27.201 5.27276 27.8662 4.60773 28.6808 4.60773Z" fill="#796573"/>
<path fill-rule="evenodd" clip-rule="evenodd" d="M40.001 26.1653C39.7159 24.6193 39.3186 23.1884 38.7829 21.939C38.6822 21.7087 38.5873 21.4784 38.4951 21.2453C38.0978 21.5561 37.6631 21.8527 37.1996 22.1347C37.5594 23.5686 37.7984 25.1347 37.9482 26.7642C38.6391 26.5453 39.3214 26.3439 40.001 26.1653Z" fill="#EFEAFC"/>
<path d="M8.48516 9.59692H8.12512M11.7901 9.59692H11.4303M15.0924 9.59692H14.7326" stroke="black" stroke-width="1.191" stroke-miterlimit="10" stroke-linecap="round" stroke-linejoin="round"/>
<path d="M22.6639 21.5587C22.4106 21.8955 22.0075 22.1143 21.5554 22.1143C21.1005 22.1143 20.6975 21.8955 20.4442 21.5587" stroke="black" stroke-width="1.191" stroke-miterlimit="10" stroke-linecap="round" stroke-linejoin="round"/>
<path d="M35.3805 0.7616C35.3805 0.7616 35.2624 2.89208 35.4379 6.06743M2.56917 37.2177C2.3243 31.7879 2.60939 25.9294 4.32529 21.9391C4.5988 21.3057 4.84915 20.6638 5.07939 20.0132C3.61984 19.0976 2.61518 17.1659 2.61518 14.9317C2.61518 12.4645 3.8387 10.3657 5.54577 9.59703C4.23297 8.77935 3.35212 7.24779 3.35212 5.49157C3.35212 2.8804 5.30973 0.7616 7.72814 0.7616M4.2157 51.2382C4.2157 51.2382 3.2858 46.5569 2.79373 40.6609M24.2964 51.2382L21.5557 38.1792L18.8121 51.2382M36.2729 13.311C36.748 16.164 37.577 19.1437 38.7832 21.9391C42.8484 31.3733 38.8927 51.2382 38.8927 51.2382" stroke="black" stroke-width="1.191" stroke-miterlimit="10" stroke-linecap="round" stroke-linejoin="round"/>
<path d="M30.8919 24.6654C28.1108 25.3765 24.9296 25.7796 21.5554 25.7796C14.3869 25.7796 8.10783 23.9658 4.61581 21.2452M38.4951 21.2452C37.3379 22.1463 35.8753 22.9467 34.1797 23.6146M3.1073 26.1654C4.11775 26.433 5.14272 26.7469 6.17317 27.1068C13.5665 29.6891 19.5402 34.14 21.5554 38.1791C23.5679 34.14 29.5418 29.6891 36.9348 27.1068C37.9655 26.7469 38.9902 26.433 40.001 26.1654" stroke="black" stroke-width="1.191" stroke-miterlimit="10" stroke-linecap="round" stroke-linejoin="round"/>
<path d="M19.3501 8.11688H27.201V11.0764H19.3501C18.5355 11.0764 17.8704 10.4084 17.8704 9.59665C17.8704 8.78192 18.5355 8.11688 19.3501 8.11688Z" stroke="black" stroke-width="1.191" stroke-miterlimit="10" stroke-linecap="round" stroke-linejoin="round"/>
<path d="M28.6808 4.60773C29.4927 4.60773 30.1576 5.27276 30.1576 6.08749V13.1064C30.1576 13.9184 29.4927 14.5862 28.6808 14.5862C27.8662 14.5862 27.201 13.9184 27.201 13.1064V6.08749C27.201 5.27276 27.8662 4.60773 28.6808 4.60773Z" stroke="black" stroke-width="1.191" stroke-miterlimit="10" stroke-linecap="round" stroke-linejoin="round"/>
<path d="M30.1576 6.08754H37.3808C38.1927 6.08754 38.8578 6.75257 38.8578 7.56446V11.6266C38.8578 12.4414 38.1927 13.1063 37.3808 13.1063H30.1576V6.08754Z" stroke="black" stroke-width="1.191" stroke-miterlimit="10" stroke-linecap="round" stroke-linejoin="round"/>
<path d="M38.8579 7.56431H42.6898C43.3434 7.56431 43.876 8.09975 43.876 8.7533V10.4404C43.876 11.0938 43.3434 11.6264 42.6898 11.6264H38.8579V7.56431Z" stroke="black" stroke-width="1.191" stroke-miterlimit="10" stroke-linecap="round" stroke-linejoin="round"/>
<path d="M43.876 9.59682H46.5506C48.1772 9.59682 49.5072 10.9269 49.5072 12.5534V37.6147C49.5072 39.2415 48.1772 40.5744 46.5506 40.5744H40.3234" stroke="black" stroke-width="1.191" stroke-miterlimit="10" stroke-linecap="round" stroke-linejoin="round"/>
</g>
</g>
<defs>
<clipPath id="clip0_1_2931">
<rect width="52" height="52" fill="white"/>
</clipPath>
</defs>
</svg>
