<svg width="52" height="52" viewBox="0 0 52 52" fill="none" xmlns="http://www.w3.org/2000/svg">
<g clip-path="url(#clip0_1_2555)">
<path d="M6.89575 20.4855V19.6863C6.89575 17.9298 8.31956 16.506 10.076 16.506H13.353V20.4856L6.89575 20.4855Z" fill="#918291"/>
<path d="M12.8913 16.5059H10.076C8.31956 16.5059 6.89575 17.9298 6.89575 19.6861V20.4853H9.71106V19.6861C9.71106 17.9298 11.1349 16.5059 12.8913 16.5059Z" fill="#7A6D79"/>
<path d="M10.2054 10.1547C12.1892 15.5984 12.241 21.5587 10.3519 27.036L10.2233 27.4088C9.80011 28.6359 9.475 29.8885 9.24618 31.1554H39.3691C39.1404 29.8885 38.8152 28.6357 38.392 27.4088L38.2634 27.036C36.3744 21.5588 36.4261 15.5985 38.4099 10.1547L40.4833 4.46509C41.1391 2.66551 39.8066 0.761719 37.8914 0.761719H10.724C8.80875 0.761719 7.47625 2.66551 8.13204 4.46499L10.2054 10.1547Z" fill="#FFE8C8"/>
<path d="M10.2054 10.1547C12.1892 15.5985 12.241 21.5587 10.3519 27.036L10.2233 27.4088C9.80011 28.6359 9.475 29.8885 9.24618 31.1554H12.9767C13.2054 29.8885 13.5306 28.6357 13.9538 27.4088L14.0824 27.036C15.9713 21.5588 15.9197 15.5985 13.9359 10.1547L11.8625 4.46499C11.2067 2.66551 12.5392 0.761719 14.4545 0.761719H10.724C8.80875 0.761719 7.47625 2.66551 8.13204 4.46499L10.2054 10.1547Z" fill="#FAB684"/>
<path d="M43.6987 29.7985H9.53017C9.26621 30.9079 9.08096 32.0319 8.96924 33.1622H44.371L44.9842 31.7684C45.3926 30.8403 44.7127 29.7985 43.6987 29.7985Z" fill="#ECF4FF"/>
<path d="M8.96931 33.1622C8.68453 36.0428 8.89263 38.9653 9.6056 41.8011L11.4539 49.1523C11.7623 50.3786 12.8649 51.2384 14.1294 51.2384H35.1202C35.9088 51.2384 36.6228 50.7724 36.9404 50.0506L44.371 33.1623H8.96931V33.1622Z" fill="#97DA7B"/>
<path d="M9.92919 9.39656H38.6862L40.4834 4.46499C41.1391 2.66551 39.8066 0.761719 37.8914 0.761719H10.724C8.80875 0.761719 7.47625 2.66551 8.13204 4.46499L9.92919 9.39656Z" fill="#97DA7B"/>
<path d="M9.60562 41.8011L11.454 49.1523C11.7623 50.3786 12.865 51.2384 14.1294 51.2384H17.8599C16.5954 51.2384 15.4928 50.3786 15.1844 49.1523L13.3361 41.8011C12.6231 38.9653 12.415 36.0428 12.6998 33.1622H8.96933C8.68455 36.0428 8.89255 38.9653 9.60562 41.8011Z" fill="#72C14D"/>
<path d="M12.6997 33.1622C12.8114 32.0319 12.9967 30.9079 13.2607 29.7985H9.53017C9.26621 30.9079 9.08096 32.0319 8.96924 33.1622H12.6997Z" fill="#CBE2FF"/>
<path d="M14.4545 0.761719H10.724C8.80875 0.761719 7.47625 2.66551 8.13204 4.46499L9.92919 9.39656H13.6597L11.8625 4.46499C11.2067 2.66551 12.5392 0.761719 14.4545 0.761719Z" fill="#72C14D"/>
<path d="M40.6524 25.0347H9.89469C8.23841 25.0347 6.89575 23.6921 6.89575 22.0358V20.4854H40.6524C41.5294 20.4854 42.2403 21.1963 42.2403 22.0733V23.4468C42.2403 24.3238 41.5294 25.0347 40.6524 25.0347Z" fill="#ECF4FF"/>
<path d="M9.71106 22.0358V20.4854H6.89575V22.0358C6.89575 23.6921 8.23841 25.0347 9.89469 25.0347H12.71C11.0537 25.0347 9.71106 23.6921 9.71106 22.0358Z" fill="#CBE2FF"/>
<path d="M45.6816 32.0752C45.9774 31.4029 45.9143 30.6342 45.513 30.0191C45.1116 29.4041 44.4335 29.0367 43.6988 29.0367H39.6799C39.547 28.5297 39.399 28.0255 39.2369 27.5315C39.1057 27.1317 38.6752 26.9141 38.2757 27.0452C37.876 27.1762 37.6582 27.6065 37.7893 28.0064C37.9006 28.3456 38.0046 28.69 38.1016 29.0368H10.5149C10.645 28.5716 11.3952 26.2962 11.534 25.7966H40.6525C41.948 25.7966 43.0021 24.7426 43.0021 23.4469V22.0735C43.0021 20.7779 41.9481 19.7237 40.6525 19.7237H12.4696C12.5835 16.4893 12.0981 13.2384 11.0135 10.1583H37.6006C36.7568 12.5535 36.2682 15.0523 36.1499 17.5904C36.1303 18.0107 36.4551 18.3672 36.8754 18.3869C37.2974 18.4052 37.6521 18.0817 37.6717 17.6613C37.7872 15.1837 38.2763 12.746 39.1256 10.4155L41.199 4.72591C41.5919 3.64741 41.4337 2.44227 40.7755 1.50191C40.1174 0.561336 39.0391 0 37.8913 0H10.7239C9.57609 0 8.4979 0.561437 7.83978 1.5018C7.18165 2.44217 7.02331 3.64741 7.41636 4.7257L9.48976 10.4154C10.12 12.1447 10.5476 13.9337 10.7741 15.7441H10.076C7.90244 15.7441 6.13403 17.5125 6.13403 19.6861V22.0357C6.13403 24.1093 7.82109 25.7964 9.89469 25.7964H9.94892C9.8502 26.1286 8.38486 30.5601 8.21119 33.0871C8.00481 36.0917 8.13542 39.0783 8.86678 41.9867L10.715 49.3379C11.1091 50.9053 12.5131 51.9999 14.1292 51.9999H35.1203C36.2104 51.9999 37.1986 51.3551 37.6377 50.3571L45.6816 32.0752ZM9.08788 2.37534C9.46681 1.83402 10.0631 1.52344 10.7239 1.52344H37.8913C38.5522 1.52344 39.1484 1.83402 39.5274 2.37534C39.9063 2.91677 39.9939 3.58343 39.7676 4.20418L38.153 8.63484H10.4622L8.84768 4.20418C8.6214 3.58333 8.70895 2.91677 9.08788 2.37534ZM7.65747 19.6862C7.65747 18.3525 8.74246 17.2677 10.076 17.2677H10.9156C10.9666 18.0853 10.9768 18.905 10.9463 19.7237H7.65747V19.6862ZM7.65747 22.0358V21.2471H40.6525C41.108 21.2471 41.4787 21.6177 41.4787 22.0734V23.4468C41.4787 23.9023 41.1081 24.273 40.6525 24.273H35.4341V23.2334C35.4341 22.8127 35.0931 22.4717 34.6724 22.4717C34.2517 22.4717 33.9107 22.8127 33.9107 23.2334V24.273H29.985V23.2334C29.985 22.8127 29.6439 22.4717 29.2232 22.4717C28.8026 22.4717 28.4615 22.8127 28.4615 23.2334V24.273H24.5358V23.2334C24.5358 22.8127 24.1948 22.4717 23.7741 22.4717C23.3534 22.4717 23.0124 22.8127 23.0124 23.2334V24.273H19.0867V23.2334C19.0867 22.8127 18.7457 22.4717 18.325 22.4717C17.9043 22.4717 17.5633 22.8127 17.5633 23.2334V24.273H13.6376V23.2334C13.6376 22.8127 13.2965 22.4717 12.8759 22.4717C12.4552 22.4717 12.1141 22.8127 12.1141 23.2334V24.273H9.89469C8.66111 24.273 7.65747 23.2694 7.65747 22.0358ZM36.2432 49.7437C36.0474 50.1889 35.6066 50.4766 35.1203 50.4766H25.0693V41.6639C25.5919 41.5514 26.0952 41.322 26.539 40.9752L29.6721 38.526C30.0035 38.2668 30.0622 37.7882 29.8031 37.4568C29.5441 37.1253 29.0653 37.0668 28.7338 37.3257L25.6007 39.7749C25.2229 40.0703 24.7708 40.2188 24.318 40.221C24.3145 40.221 24.3112 40.2205 24.3076 40.2205C24.3042 40.2205 24.3007 40.221 24.2973 40.221C23.8445 40.2188 23.3922 40.0704 23.0145 39.7749L19.8814 37.3257C19.5498 37.0668 19.0712 37.1254 18.8122 37.4568C18.5531 37.7883 18.6117 38.2669 18.9432 38.526L22.0763 40.9751C22.5201 41.3221 23.0234 41.5514 23.5459 41.6639V50.4766H14.1293C13.2125 50.4766 12.4161 49.8556 12.1925 48.9665L10.3443 41.6153C9.71177 39.0998 9.48641 36.5158 9.67024 33.9239H16.3193C16.74 33.9239 17.081 33.583 17.081 33.1622C17.081 32.7414 16.74 32.4005 16.3193 32.4005H9.82593C9.9084 31.7795 10.0123 31.1639 10.1399 30.5603H43.6988C44.013 30.5603 44.18 30.7641 44.2371 30.8517C44.2943 30.9393 44.4136 31.1742 44.2872 31.4617L43.8741 32.4005H19.7318C19.3112 32.4005 18.9701 32.7414 18.9701 33.1622C18.9701 33.583 19.3112 33.9239 19.7318 33.9239H43.2038L36.2432 49.7437Z" fill="black"/>
</g>
<defs>
<clipPath id="clip0_1_2555">
<rect width="52" height="52" fill="white"/>
</clipPath>
</defs>
</svg>
