<svg width="52" height="52" viewBox="0 0 52 52" fill="none" xmlns="http://www.w3.org/2000/svg">
<g clip-path="url(#clip0_1_2589)">
<path d="M36.9581 51.1368L36.0345 38.1074H19.8246L18.9014 51.1368H36.9581Z" fill="#FFE4C2"/>
<path d="M36.958 51.1368L36.0348 38.1074H19.8245L19.6404 40.708L21.0281 42.0592C22.6821 43.6696 24.899 44.5705 27.2076 44.5705H28.6513C29.9002 44.5705 31.1122 44.3123 32.2246 43.8215C33.0046 43.4772 33.8889 44.0254 33.9492 44.876L34.3932 51.1368H36.958Z" fill="#F2BB88"/>
<path d="M41.0618 18.7169H43.654C44.6839 18.7169 45.4897 19.6048 45.3901 20.6299L45.0267 24.3644C44.9212 25.4518 44.2816 26.4155 43.3203 26.9348L41.0618 28.1559V18.7169Z" fill="#FFE4C2"/>
<path d="M41.0618 21.0767H42.204C42.8042 21.0767 43.2759 21.5896 43.2263 22.1879L43.1045 23.6487C43.0462 24.3473 42.6356 24.9678 42.0151 25.2939L41.0618 25.7958V21.0767Z" fill="#F2BB88"/>
<path d="M14.7976 18.7169H12.2054C11.1754 18.7169 10.3697 19.6048 10.4693 20.6299L10.8323 24.3644C10.9382 25.4518 11.5777 26.4155 12.539 26.9348L14.7976 28.1559V18.7169Z" fill="#FFE4C2"/>
<path d="M14.7976 21.0767H13.6554C13.0551 21.0767 12.583 21.5896 12.633 22.1879L12.7548 23.6487C12.8131 24.3473 13.2238 24.9678 13.8438 25.2939L14.7976 25.7958V21.0767Z" fill="#F2BB88"/>
<path d="M14.7976 10.9196V28.745C14.7976 31.5134 15.9164 34.1643 17.9 36.0956L22.704 40.7734C23.8534 41.8926 25.3942 42.5187 26.9982 42.5187H28.8609C30.4652 42.5187 32.0061 41.8926 33.1555 40.7734L37.9595 36.0956C39.9431 34.1643 41.0619 31.5134 41.0619 28.745V10.9196H14.7976Z" fill="#FFE4C2"/>
<path d="M37.8812 10.9196V28.745C37.8812 31.5134 36.7624 34.1643 34.7787 36.0956L29.9747 40.7734C28.9837 41.7383 27.7019 42.3358 26.3391 42.4822C26.5573 42.5056 26.7767 42.5187 26.9981 42.5187H28.8607C30.4651 42.5187 32.0056 41.8926 33.1549 40.7734L37.9593 36.0956C39.943 34.1643 41.0617 31.5134 41.0617 28.745V10.9196H37.8812Z" fill="#F2BB88"/>
<path d="M27.9298 0.660156C18.7129 0.660156 11.0842 4.99918 11.0842 12.5712C11.0842 16.2151 12.5402 18.7169 12.5402 18.7169H14.7976C14.7976 18.7169 16.477 15.3312 27.9298 15.3312C39.3821 15.3312 41.0619 18.7169 41.0619 18.7169H43.3189C43.3189 18.7169 44.7753 16.2151 44.7753 12.5712C44.7753 4.99918 37.1466 0.660156 27.9298 0.660156Z" fill="#7AF4AB"/>
<path d="M27.9298 0.660156C27.5299 0.660156 27.1331 0.668884 26.74 0.68515C35.4141 1.0434 42.3957 5.32768 42.3957 12.5712C42.3957 16.2155 41.0619 18.7169 41.0619 18.7169H43.3189C43.3189 18.7169 44.7753 16.2155 44.7753 12.5712C44.7753 4.99918 37.1466 0.660156 27.9298 0.660156Z" fill="#6AD394"/>
<path d="M19.5754 38.0931L12.1653 45.5029L7.81274 41.1503L15.2225 33.7402L19.5754 38.0931Z" fill="#DFEDFF"/>
<path d="M19.5749 38.0927L18.4141 36.9323L13.3982 41.9482C12.677 42.6694 11.5078 42.6694 10.7865 41.9482L8.90009 40.0617L7.81226 41.1499L12.1648 45.5029L19.5749 38.0927Z" fill="#C0DBFF"/>
<path d="M18.8494 37.3676L20.3007 35.9167L20.3003 34.4659L18.8494 33.0146H17.3986L15.9478 34.4659L18.8494 37.3676Z" fill="#5A5A5A"/>
<path d="M20.3001 34.4659L19.2821 33.4474V34.0485C19.2821 34.5928 19.0659 35.1145 18.6811 35.4993L17.8313 36.3491L18.8493 37.3675L20.3005 35.9167L20.3001 34.4659Z" fill="#464646"/>
<path d="M11.4396 44.7777L7.04426 49.173L4.14258 46.2713L8.53794 41.876L11.4396 44.7777Z" fill="#DFEDFF"/>
<path d="M6.10034 48.2296L10.4957 43.8342L11.4387 44.7773L7.04337 49.1726L6.10034 48.2296Z" fill="#C0DBFF"/>
<path d="M46.8073 36.6709L46.038 34.6198C45.8095 34.0112 45.4052 33.4847 44.8768 33.107L44.1396 32.5671L44.8768 32.0275C45.4052 31.6498 45.8099 31.123 46.038 30.5144L46.8073 28.4633L47.5761 30.5144C47.8046 31.123 48.2089 31.6498 48.7373 32.0275L49.4745 32.5671L48.7373 33.107C48.2089 33.4847 47.8042 34.0112 47.5761 34.6198L46.8073 36.6709Z" fill="#FFF692"/>
<path d="M48.7374 32.0276C48.3962 31.7836 48.1074 31.4769 47.8836 31.1266C47.5742 32.4548 46.6772 33.4816 45.5564 33.7601C45.7579 34.0195 45.9214 34.3088 46.038 34.6198L46.8073 36.6709L47.5761 34.6198C47.8043 34.0112 48.2089 33.4847 48.7374 33.1071L49.4745 32.5671L48.7374 32.0276Z" fill="#FFF263"/>
<path d="M42.5083 43.7501L41.8545 42.0065C41.6605 41.4892 41.3169 41.0417 40.8674 40.7207L40.241 40.2617L40.8674 39.8027C41.3169 39.4817 41.6605 39.0342 41.8545 38.5169L42.5083 36.7733L43.1621 38.5169C43.3561 39.0342 43.6997 39.4817 44.1491 39.8027L44.7756 40.2617L44.1491 40.7207C43.6997 41.0417 43.3561 41.4892 43.1621 42.0065L42.5083 43.7501Z" fill="#FFF692"/>
<path d="M44.1492 39.803C43.8588 39.5956 43.6136 39.3349 43.4236 39.0374C43.1605 40.1664 42.398 41.0389 41.4451 41.2757C41.6169 41.4963 41.7553 41.7423 41.8545 42.0065L42.5083 43.7501L43.1621 42.0065C43.3561 41.4895 43.6997 41.0416 44.1492 40.7207L44.776 40.2617L44.1492 39.803Z" fill="#FFF263"/>
<path d="M39.7495 35.1808C41.1059 33.2951 41.8232 31.0695 41.8232 28.7454V28.6097L43.6826 27.6048C44.8684 26.9637 45.6544 25.7799 45.7849 24.4377L46.1483 20.7033C46.2165 20.0015 45.9837 19.2993 45.5096 18.7768C45.2211 18.459 44.8573 18.2242 44.4582 18.0885C44.9168 16.9768 45.5369 15.0222 45.5369 12.5712C45.5369 8.70741 43.7021 5.4467 40.2299 3.1417C37.0803 1.05014 32.7119 -0.101562 27.9297 -0.101562C22.9158 -0.101562 18.401 1.15091 15.2169 3.42536C14.8745 3.67014 14.7952 4.14582 15.04 4.4882C15.2843 4.83018 15.76 4.90953 16.1024 4.66514C19.0303 2.57358 23.2308 1.42188 27.9297 1.42188C32.4155 1.42188 36.4844 2.48313 39.3872 4.41084C42.4139 6.42027 44.0135 9.24181 44.0135 12.5712C44.0135 15.1618 43.224 17.1574 42.8511 17.9552H41.4538C41.0432 17.4664 40.1335 16.6682 38.2367 15.9699C38.7505 15.4947 39.2317 14.7881 39.4479 13.7411C39.5332 13.3293 39.2682 12.9262 38.856 12.8409C38.4438 12.756 38.0411 13.0211 37.9558 13.4333C37.6535 14.8972 36.5709 15.3007 36.2741 15.3852C35.5052 15.2015 34.632 15.038 33.6398 14.9071C34.0758 14.3461 34.4365 13.5753 34.4365 12.5612C34.4365 12.1403 34.0957 11.7995 33.6747 11.7995C33.2542 11.7995 32.913 12.1403 32.913 12.5612C32.913 13.8701 31.899 14.5294 31.5947 14.698C30.7056 14.6314 29.7392 14.5889 28.6914 14.575V11.7404C28.6914 11.3199 28.3502 10.9787 27.9297 10.9787C27.5088 10.9787 27.168 11.3199 27.168 11.7404V14.575C26.1194 14.5889 25.1534 14.6314 24.2639 14.698C23.9684 14.5354 22.946 13.8784 22.946 12.5612C22.946 12.1403 22.6048 11.7995 22.1843 11.7995C21.7637 11.7995 21.4225 12.1403 21.4225 12.5612C21.4225 13.5753 21.7832 14.3461 22.2192 14.9067C21.2262 15.038 20.3522 15.2015 19.5829 15.3856C19.2981 15.307 18.2086 14.9131 17.9032 13.4329C17.8179 13.0211 17.4144 12.756 17.003 12.8409C16.5908 12.9262 16.3262 13.3289 16.4111 13.7411C16.6273 14.7881 17.1085 15.4947 17.6223 15.9695C15.7259 16.6682 14.8158 17.466 14.4052 17.9548H13.0079C12.6346 17.1562 11.8455 15.161 11.8455 12.5712C11.8455 10.4808 12.468 8.59792 13.695 6.9745C13.949 6.63847 13.8823 6.16081 13.5467 5.9073C13.211 5.65339 12.7334 5.72004 12.4799 6.05568C11.0481 7.94966 10.3221 10.142 10.3221 12.5712C10.3221 15.0218 10.9425 16.9768 11.4012 18.0885C11.0017 18.2242 10.6378 18.4586 10.3494 18.7768C9.87534 19.2993 9.64285 20.0011 9.71109 20.7033L10.0741 24.4377C10.2046 25.7795 10.9905 26.9633 12.1764 27.6044L14.0354 28.6093V28.745C14.0354 30.2292 14.3358 31.6903 14.9106 33.0456C14.8285 33.0825 14.7511 33.1336 14.6837 33.2015L7.27359 40.6112C7.13076 40.754 7.05023 40.948 7.05023 41.15C7.05023 41.3519 7.13076 41.5459 7.27359 41.6887L7.46044 41.8756L4.1422 45.1934L3.22972 44.2813C2.93257 43.9838 2.45015 43.9838 2.1526 44.2813C1.85506 44.5789 1.85506 45.0609 2.1526 45.3585L7.95636 51.1622C8.10513 51.311 8.29992 51.3852 8.49472 51.3852C8.68991 51.3852 8.8847 51.311 9.03348 51.1622C9.33102 50.8647 9.33102 50.3822 9.03348 50.0851L8.1214 49.1726L11.4396 45.8544L11.6265 46.0412C11.7749 46.19 11.9701 46.2646 12.1649 46.2646C12.3597 46.2646 12.5548 46.19 12.7036 46.0412L18.9406 39.8042L18.1416 51.0829C18.1118 51.5022 18.4276 51.8668 18.8474 51.8966C18.8656 51.8977 18.8839 51.8981 18.9021 51.8981C19.2981 51.8981 19.6325 51.5919 19.6611 51.1904L20.4775 39.6686L22.1724 41.319C23.472 42.5841 25.1855 43.2808 26.9978 43.2808H28.8604C30.6735 43.2808 32.3873 42.5841 33.687 41.319L35.3815 39.669L36.1979 51.1904C36.2265 51.5919 36.5609 51.8985 36.9569 51.8985C36.9751 51.8985 36.9934 51.8977 37.0116 51.8966C37.4314 51.8668 37.7476 51.5026 37.7178 51.0829L36.8101 38.2776L37.2274 37.871C37.529 37.5774 37.5353 37.0954 37.2417 36.7939C36.9485 36.4924 36.4661 36.486 36.165 36.7796L32.6242 40.2276C31.6109 41.2138 30.2744 41.7573 28.8604 41.7573H26.9978C25.585 41.7573 24.2484 41.2138 23.2352 40.2276L20.1098 37.1838L20.839 36.4551C20.9818 36.3122 21.0619 36.1186 21.0619 35.9163V34.4655C21.0619 34.2635 20.9818 34.0695 20.839 33.9267L20.6521 33.7402L22.1148 32.2775C22.2461 32.5056 22.4921 32.6595 22.7742 32.6595C23.1947 32.6595 23.5359 32.3184 23.5359 31.8978C23.5359 30.714 22.5731 29.7511 21.3892 29.7511C20.9687 29.7511 20.6275 30.0919 20.6275 30.5128C20.6275 30.8096 20.7977 31.0663 21.0456 31.192L19.575 32.6627L19.3881 32.4759C19.2453 32.333 19.0513 32.2529 18.8494 32.2529H17.3985C17.1966 32.2529 17.003 32.333 16.8598 32.4759L16.49 32.846C15.8786 31.5693 15.5589 30.1693 15.5589 28.745V18.9518C15.7374 18.7411 16.2476 18.2369 17.3854 17.7167C19.0061 16.9757 22.1505 16.0925 27.9297 16.0925C37.3028 16.0925 39.8272 18.3995 40.2997 18.9569V28.745C40.2997 30.7481 39.6816 32.6659 38.5128 34.2909C38.2669 34.6325 38.3446 35.1086 38.6862 35.3541C38.8207 35.4509 38.9762 35.4974 39.1306 35.4974C39.3674 35.4977 39.6007 35.3879 39.7495 35.1808ZM7.04388 48.0959L5.21932 46.2709L8.53756 42.9531L10.3621 44.7776L7.04388 48.0959ZM12.9012 26.2647C12.1617 25.8652 11.6717 25.1269 11.5904 24.2905L11.2274 20.5561C11.2 20.2768 11.2893 20.0086 11.4777 19.8008C11.6662 19.5929 11.9244 19.4786 12.2053 19.4786H14.0354V26.878L12.9012 26.2647ZM12.1649 44.4257L8.88946 41.1503L9.55716 40.4823L10.3601 41.2852C10.5089 41.434 10.7041 41.5082 10.8989 41.5082C11.0937 41.5082 11.2889 41.434 11.4377 41.2852C11.7348 40.9877 11.7348 40.5053 11.4377 40.2081L10.6347 39.4051L11.5067 38.5331L12.3097 39.3361C12.4584 39.4845 12.6532 39.5591 12.848 39.5591C13.0432 39.5591 13.238 39.4849 13.3868 39.3361C13.6843 39.0386 13.6843 38.5561 13.3868 38.2586L12.5838 37.456L13.4558 36.5836L14.2588 37.3866C14.4076 37.5354 14.6024 37.6099 14.7976 37.6099C14.9924 37.6099 15.1875 37.5354 15.3359 37.3866C15.6335 37.089 15.6335 36.607 15.3359 36.3095L14.5329 35.5065L15.2221 34.8174L18.4975 38.0932L12.1649 44.4257ZM17.7139 33.7763H18.534L19.5385 34.7813V35.6013L18.8494 36.2904L17.0248 34.4659L17.7139 33.7763ZM43.6541 19.4786C43.9345 19.4786 44.1928 19.5929 44.3817 19.8008C44.5701 20.0086 44.659 20.2768 44.632 20.5561L44.2686 24.2905C44.1873 25.1272 43.6973 25.8652 42.9582 26.2647L41.8232 26.8784V19.4786H43.6541Z" fill="black"/>
<path d="M49.9252 31.953L49.2206 31.4364C48.7869 31.1266 48.4592 30.6997 48.272 30.201L47.5202 28.1959C47.4087 27.8988 47.1246 27.7016 46.8073 27.7016C46.4895 27.7016 46.2054 27.8984 46.0939 28.1959L45.3421 30.201C45.1549 30.6997 44.8272 31.1266 44.386 31.442L43.6894 31.953C43.4938 32.0966 43.3779 32.3247 43.3779 32.5671C43.3779 32.8099 43.4938 33.038 43.6894 33.1816L44.394 33.6982C44.8272 34.0076 45.1549 34.4349 45.3421 34.9336L46.0939 36.9383C46.2054 37.2358 46.4895 37.4326 46.8073 37.4326C47.1246 37.4326 47.4087 37.2358 47.5202 36.9383L48.272 34.9336C48.4592 34.4349 48.7869 34.0076 49.2281 33.6926L49.9248 33.1816C50.1207 33.038 50.2362 32.8099 50.2362 32.5671C50.2362 32.3247 50.1207 32.0966 49.9252 31.953ZM46.8073 34.5015C46.8073 34.5015 46.0305 33.0384 45.4251 32.5671C46.0336 32.0914 46.8073 30.6326 46.8073 30.6326C46.8073 30.6326 47.5837 32.0958 48.1891 32.5671C47.5805 33.0428 46.8073 34.5015 46.8073 34.5015Z" fill="black"/>
<path d="M45.2264 39.6476L44.6261 39.2076C44.2766 38.9576 44.0116 38.6129 43.8608 38.2102L43.2217 36.5059C43.1102 36.2087 42.8261 36.0115 42.5088 36.0115C42.191 36.0115 41.9069 36.2087 41.7954 36.5059L41.1563 38.2102C41.0056 38.6129 40.7409 38.9576 40.3831 39.2131L39.7908 39.6476C39.5952 39.7908 39.4797 40.0189 39.4797 40.2617C39.4797 40.5045 39.5952 40.7326 39.7908 40.8758L40.391 41.3162C40.7409 41.5657 41.0056 41.9105 41.1563 42.3132L41.7954 44.0171C41.9069 44.3147 42.1914 44.5115 42.5088 44.5115C42.8261 44.5115 43.1106 44.3147 43.2217 44.0171L43.8608 42.3132C44.012 41.9105 44.2766 41.5657 44.634 41.3103L45.2264 40.8758C45.4219 40.7322 45.5378 40.5041 45.5378 40.2617C45.5378 40.0189 45.4219 39.7912 45.2264 39.6476ZM42.5084 41.5955C42.2818 41.077 41.9422 40.6219 41.515 40.2617C41.9442 39.8987 42.2826 39.4444 42.5084 38.9279C42.7349 39.4464 43.0749 39.9019 43.5018 40.2621C43.0725 40.6251 42.7341 41.0794 42.5084 41.5955Z" fill="black"/>
</g>
<defs>
<clipPath id="clip0_1_2589">
<rect width="52" height="52" fill="white"/>
</clipPath>
</defs>
</svg>
